<svg xmlns="http://www.w3.org/2000/svg" viewBox="0 0 800 600" width="800" height="600">
  <defs>
    <linearGradient id="bat-bg" x1="0%" y1="0%" x2="100%" y2="100%">
      <stop offset="0%" stop-color="#18181b"/>
      <stop offset="100%" stop-color="#27272a"/>
    </linearGradient>
    <linearGradient id="bat-grad" x1="0%" y1="0%" x2="0%" y2="100%">
      <stop offset="0%" stop-color="#22c55e"/>
      <stop offset="100%" stop-color="#15803d"/>
    </linearGradient>
  </defs>
  <rect width="800" height="600" fill="url(#bat-bg)"/>

  <!-- Battery Unit -->
  <g transform="translate(260, 80)">
    <!-- Battery Outer Case -->
    <rect x="0" y="0" width="280" height="340" rx="16" fill="#3f3f46" stroke="#71717a" stroke-width="2"/>
    
    <!-- Front Faceplate -->
    <rect x="15" y="15" width="250" height="310" rx="8" fill="#18181b"/>

    <!-- LED Charge Gauge (4 bars) -->
    <text x="35" y="60" font-family="sans-serif" font-weight="bold" font-size="13" fill="#a1a1aa">BATTERY LEVEL (100%)</text>
    <rect x="35" y="75" width="45" height="12" rx="3" fill="#22c55e"/>
    <rect x="85" y="75" width="45" height="12" rx="3" fill="#22c55e"/>
    <rect x="135" y="75" width="45" height="12" rx="3" fill="#22c55e"/>
    <rect x="185" y="75" width="45" height="12" rx="3" fill="#22c55e"/>

    <!-- LiFePO4 Chemistry badge -->
    <rect x="35" y="120" width="210" height="120" rx="8" fill="#27272a"/>
    <text x="140" y="170" font-family="sans-serif" font-weight="bold" font-size="28" fill="#22c55e" text-anchor="middle">LiFePO4</text>
    <text x="140" y="200" font-family="sans-serif" font-size="13" fill="#d4d4d8" text-anchor="middle">48V • 6,000+ Deep Cycles</text>

    <!-- Power button -->
    <circle cx="140" cy="285" r="18" fill="#0056b3"/>
    <path d="M 140 275 L 140 285" stroke="#ffffff" stroke-width="2.5" stroke-linecap="round"/>
    <path d="M 134 279 A 8 8 0 1 0 146 279" stroke="#ffffff" stroke-width="2.5" fill="none" stroke-linecap="round"/>
  </g>

  <!-- Bottom Details Overlay -->
  <rect x="0" y="470" width="800" height="130" fill="#090d16" opacity="0.95"/>
  <text x="50" y="520" font-family="system-ui, -apple-system, sans-serif" font-weight="bold" font-size="24" fill="#ffffff">Lithium Battery 10kWh</text>
  <text x="50" y="555" font-family="system-ui, -apple-system, sans-serif" font-size="14" fill="#a1a1aa">High-Capacity Whole Home & Commercial Backup System</text>

  <!-- Badge Pill -->
  <g transform="translate(620, 505)">
    <rect x="0" y="0" width="130" height="34" rx="17" fill="#f59e0b"/>
    <text x="65" y="22" font-family="system-ui, -apple-system, sans-serif" font-weight="bold" font-size="13" fill="#ffffff" text-anchor="middle">10 kWh</text>
  </g>
</svg>